<?xml version="1.0" encoding="UTF-8" standalone="no"?>
<!DOCTYPE svg PUBLIC "-//W3C//DTD SVG 1.1//EN"
 "http://www.w3.org/Graphics/SVG/1.1/DTD/svg11.dtd">
<!-- Generated by graphviz version 2.47.3 (20210619.1520)
 -->
<!-- Title: dependencies Pages: 1 -->
<svg width="2060pt" height="247pt"
 viewBox="0.00 0.00 2060.00 246.80" xmlns="http://www.w3.org/2000/svg" xmlns:xlink="http://www.w3.org/1999/xlink">
<g id="graph0" class="graph" transform="scale(1 1) rotate(0) translate(4 242.8)">
<title>dependencies</title>
<polygon fill="white" stroke="transparent" points="-4,4 -4,-242.8 2056,-242.8 2056,4 -4,4"/>
<text text-anchor="middle" x="1026" y="-8.2" font-family="sans-serif" font-size="14.00">dependencies</text>
<g id="clust1" class="cluster">
<title>cluster_AppModule</title>
<polygon fill="none" stroke="black" stroke-dasharray="1,5" points="8,-32.8 8,-230.8 2044,-230.8 2044,-32.8 8,-32.8"/>
</g>
<g id="clust14" class="cluster">
<title>cluster_AppModule_imports</title>
<polygon fill="none" stroke="black" points="1892,-40.8 1892,-92.8 2036,-92.8 2036,-40.8 1892,-40.8"/>
</g>
<g id="clust16" class="cluster">
<title>cluster_AppModule_bootstrap</title>
<polygon fill="none" stroke="black" points="1041,-170.8 1041,-222.8 1165,-222.8 1165,-170.8 1041,-170.8"/>
</g>
<g id="clust2" class="cluster">
<title>cluster_AppModule_declarations</title>
<polygon fill="none" stroke="black" points="16,-40.8 16,-92.8 1884,-92.8 1884,-40.8 16,-40.8"/>
</g>
<!-- AppComponent -->
<g id="node1" class="node">
<title>AppComponent</title>
<polygon fill="#ffffb3" stroke="black" points="1875.94,-84.8 1770.06,-84.8 1770.06,-48.8 1875.94,-48.8 1875.94,-84.8"/>
<text text-anchor="middle" x="1823" y="-62.6" font-family="Times,serif" font-size="14.00">AppComponent</text>
</g>
<!-- AppModule -->
<g id="node12" class="node">
<title>AppModule</title>
<polygon fill="#8dd3c7" stroke="black" points="1144.66,-149.8 1141.66,-153.8 1120.66,-153.8 1117.66,-149.8 1061.34,-149.8 1061.34,-113.8 1144.66,-113.8 1144.66,-149.8"/>
<text text-anchor="middle" x="1103" y="-127.6" font-family="Times,serif" font-size="14.00">AppModule</text>
</g>
<!-- AppComponent&#45;&gt;AppModule -->
<g id="edge1" class="edge">
<title>AppComponent&#45;&gt;AppModule</title>
<path fill="none" stroke="black" d="M1823,-85.08C1823,-106.12 1823,-137.8 1823,-137.8 1823,-137.8 1154.82,-137.8 1154.82,-137.8"/>
<polygon fill="black" stroke="black" points="1154.82,-134.3 1144.82,-137.8 1154.82,-141.3 1154.82,-134.3"/>
</g>
<!-- DirectorViewComponent -->
<g id="node2" class="node">
<title>DirectorViewComponent</title>
<polygon fill="#ffffb3" stroke="black" points="1752.29,-84.8 1593.71,-84.8 1593.71,-48.8 1752.29,-48.8 1752.29,-84.8"/>
<text text-anchor="middle" x="1673" y="-62.6" font-family="Times,serif" font-size="14.00">DirectorViewComponent</text>
</g>
<!-- DirectorViewComponent&#45;&gt;AppModule -->
<g id="edge2" class="edge">
<title>DirectorViewComponent&#45;&gt;AppModule</title>
<path fill="none" stroke="black" d="M1673,-84.91C1673,-104.14 1673,-131.8 1673,-131.8 1673,-131.8 1154.91,-131.8 1154.91,-131.8"/>
<polygon fill="black" stroke="black" points="1154.91,-128.3 1144.91,-131.8 1154.91,-135.3 1154.91,-128.3"/>
</g>
<!-- EditProfileComponent -->
<g id="node3" class="node">
<title>EditProfileComponent</title>
<polygon fill="#ffffb3" stroke="black" points="1575.27,-84.8 1432.73,-84.8 1432.73,-48.8 1575.27,-48.8 1575.27,-84.8"/>
<text text-anchor="middle" x="1504" y="-62.6" font-family="Times,serif" font-size="14.00">EditProfileComponent</text>
</g>
<!-- EditProfileComponent&#45;&gt;AppModule -->
<g id="edge3" class="edge">
<title>EditProfileComponent&#45;&gt;AppModule</title>
<path fill="none" stroke="black" d="M1504,-84.82C1504,-102.17 1504,-125.8 1504,-125.8 1504,-125.8 1154.78,-125.8 1154.78,-125.8"/>
<polygon fill="black" stroke="black" points="1154.78,-122.3 1144.78,-125.8 1154.78,-129.3 1154.78,-122.3"/>
</g>
<!-- GenreViewComponent -->
<g id="node4" class="node">
<title>GenreViewComponent</title>
<polygon fill="#ffffb3" stroke="black" points="1414.85,-84.8 1269.15,-84.8 1269.15,-48.8 1414.85,-48.8 1414.85,-84.8"/>
<text text-anchor="middle" x="1342" y="-62.6" font-family="Times,serif" font-size="14.00">GenreViewComponent</text>
</g>
<!-- GenreViewComponent&#45;&gt;AppModule -->
<g id="edge4" class="edge">
<title>GenreViewComponent&#45;&gt;AppModule</title>
<path fill="none" stroke="black" d="M1342,-85.04C1342,-100.37 1342,-119.8 1342,-119.8 1342,-119.8 1154.9,-119.8 1154.9,-119.8"/>
<polygon fill="black" stroke="black" points="1154.9,-116.3 1144.9,-119.8 1154.9,-123.3 1154.9,-116.3"/>
</g>
<!-- MovieCardComponent -->
<g id="node5" class="node">
<title>MovieCardComponent</title>
<polygon fill="#ffffb3" stroke="black" points="1251.59,-84.8 1106.41,-84.8 1106.41,-48.8 1251.59,-48.8 1251.59,-84.8"/>
<text text-anchor="middle" x="1179" y="-62.6" font-family="Times,serif" font-size="14.00">MovieCardComponent</text>
</g>
<!-- MovieCardComponent&#45;&gt;AppModule -->
<g id="edge5" class="edge">
<title>MovieCardComponent&#45;&gt;AppModule</title>
<path fill="none" stroke="black" d="M1125.64,-84.91C1125.64,-84.91 1125.64,-103.79 1125.64,-103.79"/>
<polygon fill="black" stroke="black" points="1122.14,-103.79 1125.64,-113.79 1129.14,-103.79 1122.14,-103.79"/>
</g>
<!-- NavbarComponent -->
<g id="node6" class="node">
<title>NavbarComponent</title>
<polygon fill="#ffffb3" stroke="black" points="1088.03,-84.8 965.97,-84.8 965.97,-48.8 1088.03,-48.8 1088.03,-84.8"/>
<text text-anchor="middle" x="1027" y="-62.6" font-family="Times,serif" font-size="14.00">NavbarComponent</text>
</g>
<!-- NavbarComponent&#45;&gt;AppModule -->
<g id="edge6" class="edge">
<title>NavbarComponent&#45;&gt;AppModule</title>
<path fill="none" stroke="black" d="M1074.72,-84.91C1074.72,-84.91 1074.72,-103.79 1074.72,-103.79"/>
<polygon fill="black" stroke="black" points="1071.22,-103.79 1074.72,-113.79 1078.22,-103.79 1071.22,-103.79"/>
</g>
<!-- ProfileViewComponent -->
<g id="node7" class="node">
<title>ProfileViewComponent</title>
<polygon fill="#ffffb3" stroke="black" points="947.75,-84.8 798.25,-84.8 798.25,-48.8 947.75,-48.8 947.75,-84.8"/>
<text text-anchor="middle" x="873" y="-62.6" font-family="Times,serif" font-size="14.00">ProfileViewComponent</text>
</g>
<!-- ProfileViewComponent&#45;&gt;AppModule -->
<g id="edge7" class="edge">
<title>ProfileViewComponent&#45;&gt;AppModule</title>
<path fill="none" stroke="black" d="M873,-85.04C873,-100.37 873,-119.8 873,-119.8 873,-119.8 1051.08,-119.8 1051.08,-119.8"/>
<polygon fill="black" stroke="black" points="1051.08,-123.3 1061.08,-119.8 1051.08,-116.3 1051.08,-123.3"/>
</g>
<!-- SynopsisViewComponent -->
<g id="node8" class="node">
<title>SynopsisViewComponent</title>
<polygon fill="#ffffb3" stroke="black" points="780.21,-84.8 617.79,-84.8 617.79,-48.8 780.21,-48.8 780.21,-84.8"/>
<text text-anchor="middle" x="699" y="-62.6" font-family="Times,serif" font-size="14.00">SynopsisViewComponent</text>
</g>
<!-- SynopsisViewComponent&#45;&gt;AppModule -->
<g id="edge8" class="edge">
<title>SynopsisViewComponent&#45;&gt;AppModule</title>
<path fill="none" stroke="black" d="M699,-84.82C699,-102.17 699,-125.8 699,-125.8 699,-125.8 1051.29,-125.8 1051.29,-125.8"/>
<polygon fill="black" stroke="black" points="1051.29,-129.3 1061.29,-125.8 1051.29,-122.3 1051.29,-129.3"/>
</g>
<!-- UserLoginFormComponent -->
<g id="node9" class="node">
<title>UserLoginFormComponent</title>
<polygon fill="#ffffb3" stroke="black" points="599.54,-84.8 428.46,-84.8 428.46,-48.8 599.54,-48.8 599.54,-84.8"/>
<text text-anchor="middle" x="514" y="-62.6" font-family="Times,serif" font-size="14.00">UserLoginFormComponent</text>
</g>
<!-- UserLoginFormComponent&#45;&gt;AppModule -->
<g id="edge9" class="edge">
<title>UserLoginFormComponent&#45;&gt;AppModule</title>
<path fill="none" stroke="black" d="M514,-84.91C514,-104.14 514,-131.8 514,-131.8 514,-131.8 1051.11,-131.8 1051.11,-131.8"/>
<polygon fill="black" stroke="black" points="1051.11,-135.3 1061.11,-131.8 1051.11,-128.3 1051.11,-135.3"/>
</g>
<!-- UserRegistrationFormComponent -->
<g id="node10" class="node">
<title>UserRegistrationFormComponent</title>
<polygon fill="#ffffb3" stroke="black" points="410.03,-84.8 203.97,-84.8 203.97,-48.8 410.03,-48.8 410.03,-84.8"/>
<text text-anchor="middle" x="307" y="-62.6" font-family="Times,serif" font-size="14.00">UserRegistrationFormComponent</text>
</g>
<!-- UserRegistrationFormComponent&#45;&gt;AppModule -->
<g id="edge10" class="edge">
<title>UserRegistrationFormComponent&#45;&gt;AppModule</title>
<path fill="none" stroke="black" d="M307,-85.08C307,-106.12 307,-137.8 307,-137.8 307,-137.8 1051.32,-137.8 1051.32,-137.8"/>
<polygon fill="black" stroke="black" points="1051.32,-141.3 1061.32,-137.8 1051.32,-134.3 1051.32,-141.3"/>
</g>
<!-- WelcomePageComponent -->
<g id="node11" class="node">
<title>WelcomePageComponent</title>
<polygon fill="#ffffb3" stroke="black" points="186.18,-84.8 23.82,-84.8 23.82,-48.8 186.18,-48.8 186.18,-84.8"/>
<text text-anchor="middle" x="105" y="-62.6" font-family="Times,serif" font-size="14.00">WelcomePageComponent</text>
</g>
<!-- WelcomePageComponent&#45;&gt;AppModule -->
<g id="edge11" class="edge">
<title>WelcomePageComponent&#45;&gt;AppModule</title>
<path fill="none" stroke="black" d="M105,-85.05C105,-107.82 105,-143.8 105,-143.8 105,-143.8 1051.07,-143.8 1051.07,-143.8"/>
<polygon fill="black" stroke="black" points="1051.07,-147.3 1061.07,-143.8 1051.07,-140.3 1051.07,-147.3"/>
</g>
<!-- AppComponent  -->
<g id="node14" class="node">
<title>AppComponent </title>
<polygon fill="#80b1d3" stroke="black" points="1157.44,-214.8 1048.56,-214.8 1048.56,-178.8 1157.44,-178.8 1157.44,-214.8"/>
<text text-anchor="middle" x="1103" y="-192.6" font-family="Times,serif" font-size="14.00">AppComponent </text>
</g>
<!-- AppModule&#45;&gt;AppComponent  -->
<g id="edge13" class="edge">
<title>AppModule&#45;&gt;AppComponent </title>
<path fill="none" stroke="black" stroke-dasharray="1,5" d="M1103,-149.91C1103,-149.91 1103,-168.79 1103,-168.79"/>
<polygon fill="black" stroke="black" points="1099.5,-168.79 1103,-178.79 1106.5,-168.79 1099.5,-168.79"/>
</g>
<!-- AppRoutingModule -->
<g id="node13" class="node">
<title>AppRoutingModule</title>
<polygon fill="#8dd3c7" stroke="black" points="2028.27,-84.8 2025.27,-88.8 2004.27,-88.8 2001.27,-84.8 1899.73,-84.8 1899.73,-48.8 2028.27,-48.8 2028.27,-84.8"/>
<text text-anchor="middle" x="1964" y="-62.6" font-family="Times,serif" font-size="14.00">AppRoutingModule</text>
</g>
<!-- AppRoutingModule&#45;&gt;AppModule -->
<g id="edge12" class="edge">
<title>AppRoutingModule&#45;&gt;AppModule</title>
<path fill="none" stroke="black" d="M1964,-85.05C1964,-107.82 1964,-143.8 1964,-143.8 1964,-143.8 1154.82,-143.8 1154.82,-143.8"/>
<polygon fill="black" stroke="black" points="1154.82,-140.3 1144.82,-143.8 1154.82,-147.3 1154.82,-140.3"/>
</g>
</g>
</svg>
