<?xml version="1.0" encoding="UTF-8" standalone="no"?>
<!DOCTYPE svg PUBLIC "-//W3C//DTD SVG 1.1//EN"
 "http://www.w3.org/Graphics/SVG/1.1/DTD/svg11.dtd">
<!-- Generated by graphviz version 2.47.3 (20210619.1520)
 -->
<!-- Title: dependencies Pages: 1 -->
<svg width="2060pt" height="247pt"
 viewBox="0.00 0.00 2060.00 246.80" xmlns="http://www.w3.org/2000/svg" xmlns:xlink="http://www.w3.org/1999/xlink">
<g id="graph0" class="graph" transform="scale(1 1) rotate(0) translate(4 242.8)">
<title>dependencies</title>
<polygon fill="white" stroke="transparent" points="-4,4 -4,-242.8 2056,-242.8 2056,4 -4,4"/>
<text text-anchor="middle" x="1026" y="-8.2" font-family="sans-serif" font-size="14.00">dependencies</text>
<g id="clust1" class="cluster">
<title>cluster_AppModule</title>
<polygon fill="none" stroke="black" stroke-dasharray="1,5" points="8,-32.8 8,-230.8 2044,-230.8 2044,-32.8 8,-32.8"/>
</g>
<g id="clust2" class="cluster">
<title>cluster_AppModule_declarations</title>
<polygon fill="none" stroke="black" points="168,-40.8 168,-92.8 2036,-92.8 2036,-40.8 168,-40.8"/>
</g>
<g id="clust14" class="cluster">
<title>cluster_AppModule_imports</title>
<polygon fill="none" stroke="black" points="16,-40.8 16,-92.8 160,-92.8 160,-40.8 16,-40.8"/>
</g>
<g id="clust16" class="cluster">
<title>cluster_AppModule_bootstrap</title>
<polygon fill="none" stroke="black" points="1040,-170.8 1040,-222.8 1164,-222.8 1164,-170.8 1040,-170.8"/>
</g>
<!-- AppComponent -->
<g id="node1" class="node">
<title>AppComponent</title>
<polygon fill="#ffffb3" stroke="black" points="2027.94,-84.8 1922.06,-84.8 1922.06,-48.8 2027.94,-48.8 2027.94,-84.8"/>
<text text-anchor="middle" x="1975" y="-62.6" font-family="Times,serif" font-size="14.00">AppComponent</text>
</g>
<!-- AppModule -->
<g id="node12" class="node">
<title>AppModule</title>
<polygon fill="#8dd3c7" stroke="black" points="1143.66,-149.8 1140.66,-153.8 1119.66,-153.8 1116.66,-149.8 1060.34,-149.8 1060.34,-113.8 1143.66,-113.8 1143.66,-149.8"/>
<text text-anchor="middle" x="1102" y="-127.6" font-family="Times,serif" font-size="14.00">AppModule</text>
</g>
<!-- AppComponent&#45;&gt;AppModule -->
<g id="edge1" class="edge">
<title>AppComponent&#45;&gt;AppModule</title>
<path fill="none" stroke="black" d="M1975,-85.05C1975,-107.82 1975,-143.8 1975,-143.8 1975,-143.8 1153.81,-143.8 1153.81,-143.8"/>
<polygon fill="black" stroke="black" points="1153.81,-140.3 1143.81,-143.8 1153.81,-147.3 1153.81,-140.3"/>
</g>
<!-- DirectorViewComponent -->
<g id="node2" class="node">
<title>DirectorViewComponent</title>
<polygon fill="#ffffb3" stroke="black" points="1904.29,-84.8 1745.71,-84.8 1745.71,-48.8 1904.29,-48.8 1904.29,-84.8"/>
<text text-anchor="middle" x="1825" y="-62.6" font-family="Times,serif" font-size="14.00">DirectorViewComponent</text>
</g>
<!-- DirectorViewComponent&#45;&gt;AppModule -->
<g id="edge2" class="edge">
<title>DirectorViewComponent&#45;&gt;AppModule</title>
<path fill="none" stroke="black" d="M1825,-85.08C1825,-106.12 1825,-137.8 1825,-137.8 1825,-137.8 1153.73,-137.8 1153.73,-137.8"/>
<polygon fill="black" stroke="black" points="1153.73,-134.3 1143.73,-137.8 1153.73,-141.3 1153.73,-134.3"/>
</g>
<!-- EditProfileComponent -->
<g id="node3" class="node">
<title>EditProfileComponent</title>
<polygon fill="#ffffb3" stroke="black" points="1727.27,-84.8 1584.73,-84.8 1584.73,-48.8 1727.27,-48.8 1727.27,-84.8"/>
<text text-anchor="middle" x="1656" y="-62.6" font-family="Times,serif" font-size="14.00">EditProfileComponent</text>
</g>
<!-- EditProfileComponent&#45;&gt;AppModule -->
<g id="edge3" class="edge">
<title>EditProfileComponent&#45;&gt;AppModule</title>
<path fill="none" stroke="black" d="M1656,-84.91C1656,-104.14 1656,-131.8 1656,-131.8 1656,-131.8 1154.09,-131.8 1154.09,-131.8"/>
<polygon fill="black" stroke="black" points="1154.09,-128.3 1144.09,-131.8 1154.09,-135.3 1154.09,-128.3"/>
</g>
<!-- GenreViewComponent -->
<g id="node4" class="node">
<title>GenreViewComponent</title>
<polygon fill="#ffffb3" stroke="black" points="1566.85,-84.8 1421.15,-84.8 1421.15,-48.8 1566.85,-48.8 1566.85,-84.8"/>
<text text-anchor="middle" x="1494" y="-62.6" font-family="Times,serif" font-size="14.00">GenreViewComponent</text>
</g>
<!-- GenreViewComponent&#45;&gt;AppModule -->
<g id="edge4" class="edge">
<title>GenreViewComponent&#45;&gt;AppModule</title>
<path fill="none" stroke="black" d="M1494,-84.82C1494,-102.17 1494,-125.8 1494,-125.8 1494,-125.8 1153.95,-125.8 1153.95,-125.8"/>
<polygon fill="black" stroke="black" points="1153.95,-122.3 1143.95,-125.8 1153.95,-129.3 1153.95,-122.3"/>
</g>
<!-- MovieCardComponent -->
<g id="node5" class="node">
<title>MovieCardComponent</title>
<polygon fill="#ffffb3" stroke="black" points="1403.59,-84.8 1258.41,-84.8 1258.41,-48.8 1403.59,-48.8 1403.59,-84.8"/>
<text text-anchor="middle" x="1331" y="-62.6" font-family="Times,serif" font-size="14.00">MovieCardComponent</text>
</g>
<!-- MovieCardComponent&#45;&gt;AppModule -->
<g id="edge5" class="edge">
<title>MovieCardComponent&#45;&gt;AppModule</title>
<path fill="none" stroke="black" d="M1331,-85.04C1331,-100.37 1331,-119.8 1331,-119.8 1331,-119.8 1153.74,-119.8 1153.74,-119.8"/>
<polygon fill="black" stroke="black" points="1153.74,-116.3 1143.74,-119.8 1153.74,-123.3 1153.74,-116.3"/>
</g>
<!-- NavbarComponent -->
<g id="node6" class="node">
<title>NavbarComponent</title>
<polygon fill="#ffffb3" stroke="black" points="1240.03,-84.8 1117.97,-84.8 1117.97,-48.8 1240.03,-48.8 1240.03,-84.8"/>
<text text-anchor="middle" x="1179" y="-62.6" font-family="Times,serif" font-size="14.00">NavbarComponent</text>
</g>
<!-- NavbarComponent&#45;&gt;AppModule -->
<g id="edge6" class="edge">
<title>NavbarComponent&#45;&gt;AppModule</title>
<path fill="none" stroke="black" d="M1130.78,-84.91C1130.78,-84.91 1130.78,-103.79 1130.78,-103.79"/>
<polygon fill="black" stroke="black" points="1127.28,-103.79 1130.78,-113.79 1134.28,-103.79 1127.28,-103.79"/>
</g>
<!-- ProfileViewComponent -->
<g id="node7" class="node">
<title>ProfileViewComponent</title>
<polygon fill="#ffffb3" stroke="black" points="1099.75,-84.8 950.25,-84.8 950.25,-48.8 1099.75,-48.8 1099.75,-84.8"/>
<text text-anchor="middle" x="1025" y="-62.6" font-family="Times,serif" font-size="14.00">ProfileViewComponent</text>
</g>
<!-- ProfileViewComponent&#45;&gt;AppModule -->
<g id="edge7" class="edge">
<title>ProfileViewComponent&#45;&gt;AppModule</title>
<path fill="none" stroke="black" d="M1080.02,-84.91C1080.02,-84.91 1080.02,-103.79 1080.02,-103.79"/>
<polygon fill="black" stroke="black" points="1076.52,-103.79 1080.02,-113.79 1083.52,-103.79 1076.52,-103.79"/>
</g>
<!-- SynopsisViewComponent -->
<g id="node8" class="node">
<title>SynopsisViewComponent</title>
<polygon fill="#ffffb3" stroke="black" points="932.21,-84.8 769.79,-84.8 769.79,-48.8 932.21,-48.8 932.21,-84.8"/>
<text text-anchor="middle" x="851" y="-62.6" font-family="Times,serif" font-size="14.00">SynopsisViewComponent</text>
</g>
<!-- SynopsisViewComponent&#45;&gt;AppModule -->
<g id="edge8" class="edge">
<title>SynopsisViewComponent&#45;&gt;AppModule</title>
<path fill="none" stroke="black" d="M851,-85.04C851,-100.37 851,-119.8 851,-119.8 851,-119.8 1050.27,-119.8 1050.27,-119.8"/>
<polygon fill="black" stroke="black" points="1050.27,-123.3 1060.27,-119.8 1050.27,-116.3 1050.27,-123.3"/>
</g>
<!-- UserLoginFormComponent -->
<g id="node9" class="node">
<title>UserLoginFormComponent</title>
<polygon fill="#ffffb3" stroke="black" points="751.54,-84.8 580.46,-84.8 580.46,-48.8 751.54,-48.8 751.54,-84.8"/>
<text text-anchor="middle" x="666" y="-62.6" font-family="Times,serif" font-size="14.00">UserLoginFormComponent</text>
</g>
<!-- UserLoginFormComponent&#45;&gt;AppModule -->
<g id="edge9" class="edge">
<title>UserLoginFormComponent&#45;&gt;AppModule</title>
<path fill="none" stroke="black" d="M666,-84.82C666,-102.17 666,-125.8 666,-125.8 666,-125.8 1050.19,-125.8 1050.19,-125.8"/>
<polygon fill="black" stroke="black" points="1050.19,-129.3 1060.19,-125.8 1050.19,-122.3 1050.19,-129.3"/>
</g>
<!-- UserRegistrationFormComponent -->
<g id="node10" class="node">
<title>UserRegistrationFormComponent</title>
<polygon fill="#ffffb3" stroke="black" points="562.03,-84.8 355.97,-84.8 355.97,-48.8 562.03,-48.8 562.03,-84.8"/>
<text text-anchor="middle" x="459" y="-62.6" font-family="Times,serif" font-size="14.00">UserRegistrationFormComponent</text>
</g>
<!-- UserRegistrationFormComponent&#45;&gt;AppModule -->
<g id="edge10" class="edge">
<title>UserRegistrationFormComponent&#45;&gt;AppModule</title>
<path fill="none" stroke="black" d="M459,-84.91C459,-104.14 459,-131.8 459,-131.8 459,-131.8 1050.31,-131.8 1050.31,-131.8"/>
<polygon fill="black" stroke="black" points="1050.31,-135.3 1060.31,-131.8 1050.31,-128.3 1050.31,-135.3"/>
</g>
<!-- WelcomePageComponent -->
<g id="node11" class="node">
<title>WelcomePageComponent</title>
<polygon fill="#ffffb3" stroke="black" points="338.18,-84.8 175.82,-84.8 175.82,-48.8 338.18,-48.8 338.18,-84.8"/>
<text text-anchor="middle" x="257" y="-62.6" font-family="Times,serif" font-size="14.00">WelcomePageComponent</text>
</g>
<!-- WelcomePageComponent&#45;&gt;AppModule -->
<g id="edge11" class="edge">
<title>WelcomePageComponent&#45;&gt;AppModule</title>
<path fill="none" stroke="black" d="M257,-85.08C257,-106.12 257,-137.8 257,-137.8 257,-137.8 1050.1,-137.8 1050.1,-137.8"/>
<polygon fill="black" stroke="black" points="1050.1,-141.3 1060.1,-137.8 1050.1,-134.3 1050.1,-141.3"/>
</g>
<!-- AppComponent  -->
<g id="node14" class="node">
<title>AppComponent </title>
<polygon fill="#80b1d3" stroke="black" points="1156.44,-214.8 1047.56,-214.8 1047.56,-178.8 1156.44,-178.8 1156.44,-214.8"/>
<text text-anchor="middle" x="1102" y="-192.6" font-family="Times,serif" font-size="14.00">AppComponent </text>
</g>
<!-- AppModule&#45;&gt;AppComponent  -->
<g id="edge13" class="edge">
<title>AppModule&#45;&gt;AppComponent </title>
<path fill="none" stroke="black" stroke-dasharray="1,5" d="M1102,-149.91C1102,-149.91 1102,-168.79 1102,-168.79"/>
<polygon fill="black" stroke="black" points="1098.5,-168.79 1102,-178.79 1105.5,-168.79 1098.5,-168.79"/>
</g>
<!-- AppRoutingModule -->
<g id="node13" class="node">
<title>AppRoutingModule</title>
<polygon fill="#8dd3c7" stroke="black" points="152.27,-84.8 149.27,-88.8 128.27,-88.8 125.27,-84.8 23.73,-84.8 23.73,-48.8 152.27,-48.8 152.27,-84.8"/>
<text text-anchor="middle" x="88" y="-62.6" font-family="Times,serif" font-size="14.00">AppRoutingModule</text>
</g>
<!-- AppRoutingModule&#45;&gt;AppModule -->
<g id="edge12" class="edge">
<title>AppRoutingModule&#45;&gt;AppModule</title>
<path fill="none" stroke="black" d="M88,-85.05C88,-107.82 88,-143.8 88,-143.8 88,-143.8 1050.04,-143.8 1050.04,-143.8"/>
<polygon fill="black" stroke="black" points="1050.04,-147.3 1060.04,-143.8 1050.04,-140.3 1050.04,-147.3"/>
</g>
</g>
</svg>
